<svg width="320" height="568" viewBox="0 0 320 568" fill="none" xmlns="http://www.w3.org/2000/svg">
<g clip-path="url(#clip0_8_879)">
<rect width="320" height="568" fill="white"/>
<g clip-path="url(#clip1_8_879)">
<path d="M345.593 -2H-12V479.87H345.593V-2Z" fill="url(#paint0_linear_8_879)"/>
<path d="M345.593 289.921H-12V569H345.593V289.921Z" fill="url(#paint1_linear_8_879)"/>
<path d="M79.1547 144.255C79.3556 143.634 79.4719 142.976 79.4719 142.302C79.4719 138.237 75.581 134.942 70.7809 134.942C69.0152 134.942 67.3764 135.393 66.0019 136.157C64.4742 132.188 60.0758 129.322 54.8845 129.322C52.2571 129.322 49.8253 130.06 47.8746 131.302C45.9239 130.06 43.4921 129.322 40.8648 129.322C34.41 129.322 29.1711 133.759 29.1711 139.23C29.1711 141.066 29.7632 142.785 30.7887 144.26H79.1441L79.1547 144.255Z" fill="white"/>
<path d="M296.053 206.082C296.254 205.461 296.371 204.803 296.371 204.129C296.371 200.064 292.48 196.769 287.68 196.769C285.914 196.769 284.275 197.22 282.901 197.984C281.373 194.015 276.975 191.149 271.783 191.149C269.156 191.149 266.724 191.887 264.773 193.129C262.823 191.887 260.391 191.149 257.763 191.149C251.309 191.149 246.07 195.586 246.07 201.057C246.07 202.893 246.662 204.612 247.687 206.087H296.043L296.053 206.082Z" fill="white"/>
<path d="M213.489 81.0966C222.044 81.0966 228.979 74.1354 228.979 65.5483C228.979 56.9612 222.044 50 213.489 50C204.935 50 198 56.9612 198 65.5483C198 74.1354 204.935 81.0966 213.489 81.0966Z" fill="white"/>
<path d="M158.013 142.753L133.108 202.198L161.074 215.342L141.916 240.002L169.252 351.573L183.658 359.453L171.985 245.489L214.198 243.048L229.682 230.551L218.448 207.382L206.3 215.342H164.087L201.441 199.454L182.738 162.876L158.013 142.753Z" fill="white"/>
<path d="M123.841 186.214L124.608 221.408L120.659 230.248L106.385 406.751L99.7032 398.218V255.853L78.3987 244.576L81.0578 226.905L117.926 201.285L123.841 186.214Z" fill="white"/>
<path d="M255.474 247.622L215.408 259.206L197.191 284.869L215.858 241.705L255.474 247.622Z" fill="white"/>
<path d="M253.37 261.271L278.005 290.627L259.143 305.544L227.863 276.856L224.216 414.981L215.408 423.037L207.817 424.433L191.794 438.691L197.191 286.392L253.37 261.271Z" fill="white"/>
<path d="M138.881 337.553L168.787 349.689L164.695 449.124L148.598 440.283L138.881 366.209V337.553Z" fill="white"/>
<path d="M68.9359 273.29L78.145 364.075L67.2072 355.845L50.1795 290.637L68.9359 273.29Z" fill="white"/>
<path d="M147.99 159.522L133.108 202.198L123.313 186.745L131.898 167.922L147.99 159.522Z" fill="#EFAFF9"/>
<path d="M133.108 202.198L142.286 241.509L137.697 417.422L122.784 419.253L113.675 411.325L106.385 406.751L114.315 234.488L124.608 221.402L131.713 204.517L133.114 202.192L133.108 202.198Z" fill="#E7F9FF"/>
<path d="M171.393 245.489L197.503 286.392L215.858 241.705L171.393 245.489Z" fill="#E7F9FF"/>
<path d="M255.474 247.622L253.434 261.632L196.197 286.822L215.123 258.177L255.474 247.622Z" fill="#E7F9FF"/>
<path d="M78.441 244.311L99.7032 255.853V293.959L68.8408 273.582L75.7132 252.329L78.441 244.311Z" fill="#E7F9FF"/>
<path d="M158.013 142.753L146.171 159.522L130.682 167.922L123.313 186.745L133.108 202.198L158.013 142.753Z" fill="#E7F9FF"/>
<path d="M201.441 199.454L218.448 207.382L206.3 215.342H164.087L201.441 199.454Z" fill="#CBF5FA"/>
<path d="M229.682 230.551L255.474 247.622L215.858 241.705L229.682 230.551Z" fill="#9FF1F7"/>
<path d="M171.393 245.489L197.503 286.392L191.794 438.691L171.393 245.489Z" fill="#CBF5FA"/>
<path d="M278.005 290.627L257.319 332.066L226.526 327.47L278.005 290.627Z" fill="#9FF1F7"/>
<path d="M133.108 202.198L161.074 215.342L142.286 241.509L133.108 202.198Z" fill="#CAF5FA"/>
<path d="M68.9359 273.29L99.7032 293.959V398.218L84.2138 390.29L78.1449 364.075L68.9359 273.29Z" fill="#9FF1F7"/>
<path d="M142.286 241.509L169.252 351.573L138.881 337.553L142.286 241.509Z" fill="#CBF5FA"/>
<path d="M191.794 438.691L164.695 449.124L168.723 351.042L183.372 358.928L191.794 438.691Z" fill="#E7F9FF"/>
<path d="M146.795 426.523L137.697 417.422L139.183 363.115L146.795 426.523Z" fill="#CBF5FA"/>
<path d="M257.319 332.066L251.245 396.387L240.921 403.397L233.551 412.981L224.215 414.981L226.526 327.47L257.319 332.066Z" fill="#E7F9FF"/>
<path d="M227.863 276.856L262.939 301.521L226.277 327.534L227.863 276.856Z" fill="#E7F9FF"/>
<path d="M123.313 186.639L133.108 202.198L124.407 221.853L123.313 186.639Z" fill="#C8F6FB"/>
</g>
</g>
<defs>
<linearGradient id="paint0_linear_8_879" x1="166.741" y1="252.255" x2="167.737" y2="8.2736" gradientUnits="userSpaceOnUse">
<stop stop-color="#76BDFF"/>
<stop offset="0.07" stop-color="#70BFF8"/>
<stop offset="0.35" stop-color="#61C7E7"/>
<stop offset="0.65" stop-color="#57CCDD"/>
<stop offset="1" stop-color="#55CEDA"/>
</linearGradient>
<linearGradient id="paint1_linear_8_879" x1="166.265" y1="560.552" x2="167.325" y2="300.539" gradientUnits="userSpaceOnUse">
<stop stop-color="#002B44"/>
<stop offset="1" stop-color="#006584"/>
</linearGradient>
<clipPath id="clip0_8_879">
<rect width="320" height="568" fill="white"/>
</clipPath>
<clipPath id="clip1_8_879">
<rect width="358" height="571" fill="white" transform="translate(-12 -2)"/>
</clipPath>
</defs>
</svg>
