<svg width="320" height="568" viewBox="0 0 320 568" fill="none" xmlns="http://www.w3.org/2000/svg">
<g clip-path="url(#clip0_1_3)">
<rect width="320" height="568" fill="white"/>
<g clip-path="url(#clip1_1_3)">
<path d="M351.562 -93H-33V612.472H351.562V-93Z" fill="url(#paint0_linear_1_3)"/>
<path d="M351.562 408.903H-33V708H351.562V408.903Z" fill="url(#paint1_linear_1_3)"/>
<path d="M102.753 173.004C102.969 172.338 103.094 171.633 103.094 170.911C103.094 166.555 98.9101 163.023 93.748 163.023C91.8492 163.023 90.0868 163.506 88.6086 164.325C86.9656 160.071 82.2355 157 76.6527 157C73.8272 157 71.212 157.791 69.1141 159.121C67.0163 157.791 64.4011 157 61.5756 157C54.634 157 49 161.755 49 167.618C49 169.586 49.6367 171.429 50.7397 173.01H102.742L102.753 173.004Z" fill="white"/>
<path d="M283.753 234.004C283.969 233.338 284.094 232.633 284.094 231.911C284.094 227.555 279.91 224.023 274.748 224.023C272.849 224.023 271.087 224.506 269.609 225.325C267.966 221.071 263.236 218 257.653 218C254.827 218 252.212 218.791 250.114 220.121C248.016 218.791 245.401 218 242.576 218C235.634 218 230 222.755 230 228.618C230 230.586 230.637 232.429 231.74 234.01H283.742L283.753 234.004Z" fill="white"/>
<path d="M213.658 118.327C222.857 118.327 230.315 110.867 230.315 101.664C230.315 92.4605 222.857 85 213.658 85C204.458 85 197 92.4605 197 101.664C197 110.867 204.458 118.327 213.658 118.327Z" fill="white"/>
<path d="M149.835 251.179L123.052 314.888L153.127 328.975L132.524 355.398L161.922 474.977L177.414 483.417L164.861 361.278L210.257 358.668L226.909 345.275L214.828 320.444L201.764 328.975H156.368L196.539 311.947L176.425 272.74L149.835 251.179Z" fill="white"/>
<path d="M113.086 297.752L113.911 335.47L109.664 344.945L94.3139 534.113L87.1278 524.962V372.391L64.2166 360.3L67.0762 341.362L106.725 313.909L113.086 297.752Z" fill="white"/>
<path d="M254.647 363.57L211.559 375.986L191.968 403.489L212.043 357.229L254.647 363.57Z" fill="white"/>
<path d="M252.384 378.198L278.877 409.66L258.593 425.641L224.954 394.896L221.031 542.934L211.559 551.567L203.395 553.063L186.164 568.344L191.968 405.121L252.384 378.198Z" fill="white"/>
<path d="M129.261 459.946L161.422 472.953L157.021 579.526L139.71 570.051L129.261 490.657V459.946Z" fill="white"/>
<path d="M54.0401 391.079L63.9437 488.371L52.1811 479.55L33.8691 409.671L54.0401 391.079Z" fill="white"/>
<path d="M139.056 269.145L123.052 314.888L112.518 298.321L121.751 278.148L139.056 269.145Z" fill="#EFAFF9"/>
<path d="M123.052 314.888L132.922 357.019L127.987 545.55L111.949 547.512L102.154 539.016L94.3137 534.113L102.841 349.494L113.911 335.47L121.551 317.373L123.058 314.882L123.052 314.888Z" fill="#E7F9FF"/>
<path d="M164.224 361.278L192.303 405.121L212.042 357.229L164.224 361.278Z" fill="#E7F9FF"/>
<path d="M254.647 363.57L252.453 378.579L190.899 405.576L211.252 374.877L254.647 363.57Z" fill="#E7F9FF"/>
<path d="M64.262 360.016L87.1278 372.391V413.225L53.9377 391.387L61.3285 368.615L64.262 360.016Z" fill="#E7F9FF"/>
<path d="M149.835 251.179L137.101 269.145L120.443 278.148L112.518 298.321L123.052 314.888L149.835 251.179Z" fill="#E7F9FF"/>
<path d="M196.539 311.947L214.828 320.444L201.764 328.975H156.367L196.539 311.947Z" fill="#CBF5FA"/>
<path d="M226.909 345.275L254.647 363.57L212.042 357.229L226.909 345.275Z" fill="#9FF1F7"/>
<path d="M164.224 361.278L192.303 405.121L186.163 568.344L164.224 361.278Z" fill="#CBF5FA"/>
<path d="M278.877 409.66L256.631 454.065L223.515 449.146L278.877 409.66Z" fill="#9FF1F7"/>
<path d="M123.052 314.888L153.127 328.975L132.922 357.019L123.052 314.888Z" fill="#CAF5FA"/>
<path d="M54.04 391.079L87.1278 413.225V524.962L70.4702 516.471L63.9436 488.371L54.04 391.079Z" fill="#9FF1F7"/>
<path d="M132.922 357.019L161.922 474.977L129.26 459.946L132.922 357.019Z" fill="#CBF5FA"/>
<path d="M256.631 454.065L250.099 523.006L238.996 530.519L231.071 540.784L221.031 542.934L223.515 449.146L256.631 454.065Z" fill="#E7F9FF"/>
<path d="M224.953 394.896L262.674 421.335L223.248 449.214L224.953 394.896Z" fill="#E7F9FF"/>
<path d="M112.518 298.213L123.052 314.888L113.695 335.953L112.518 298.213Z" fill="#C8F6FB"/>
<path d="M352 408.903H-32.5623V708H352V408.903Z" fill="url(#paint2_linear_1_3)"/>
<path d="M205.829 298.315L206.056 301.051L205.209 301.506H203.583L202.889 301.073L203.191 298.315H205.829Z" fill="#946D51"/>
<path d="M204.481 299.083L206.289 298.287L206.875 294.533L205.681 292.912H203.208L202.127 294.533L202.668 298.281L204.487 299.089L204.481 299.083Z" fill="#BC8C5F"/>
<path d="M206.761 295.022H207.182L207.42 295.506L206.954 296.575H206.522L206.761 295.022Z" fill="#BC8C5F"/>
<path d="M202.247 295.022H201.826L201.587 295.506L202.054 296.575H202.486L202.247 295.022Z" fill="#BC8C5F"/>
<path d="M205.18 297.769H203.833L204.06 298.042H204.845L205.18 297.769Z" fill="#C17483"/>
<path d="M205.18 297.769L204.873 297.564H204.083L203.833 297.769H205.18Z" fill="#E7A8CC"/>
<path d="M204.225 297.053H204.783C204.855 297.053 204.913 296.994 204.913 296.922V296.876C204.913 296.804 204.855 296.745 204.783 296.745H204.225C204.153 296.745 204.095 296.804 204.095 296.876V296.922C204.095 296.994 204.153 297.053 204.225 297.053Z" fill="#946D51"/>
<path d="M205.277 295.181H205.988L206.056 295.42V295.813L205.863 296.006H205.22V295.517L205.283 295.187L205.277 295.181Z" fill="#1C2B4D"/>
<path d="M205.288 295.142H205.982L205.953 295.022H205.311L205.288 295.142Z" fill="#428DCB"/>
<path d="M203.958 295.511V296H203.31L203.117 295.807V295.415L203.185 295.176H203.896L203.958 295.506V295.511Z" fill="#1C2B4D"/>
<path d="M203.884 295.142H203.191L203.219 295.022H203.862L203.884 295.142Z" fill="#428DCB"/>
<path d="M203.088 299.504L202.753 299.669L202.958 299.839L202.554 299.771V299.617L202.889 299.418L202.628 299.35V299.128L202.889 299.009V298.685L202.531 298.27L202.258 298.127L201.161 296.836L201.133 294.891C201.133 294.891 201.872 293.032 202.85 292.429L202.741 292.076L203.191 291.343L204.436 291.035L205.601 291.297L205.885 291.655V292.082L205.692 292.275C205.777 292.344 205.806 292.366 205.885 292.429C207.42 293.697 207.807 294.715 207.807 294.715V296.427L206.789 298.071L205.857 298.708L205.794 298.469L206.255 298.264L206.482 296.529H206.92L207.369 295.523L207.13 295.045H206.784L206.482 295.204L206.687 295.261L206.784 295.568L206.335 295.887L206.556 296.154L206.118 296.046V295.801L206.482 295.489L206.198 295.381V295.034L206.482 294.846V294.334L206.221 293.731L205.885 293.288V293.799L205.584 294.26L205.311 294.419L205.55 293.691L205.226 292.952H203.583L203.429 293.31L203.265 293.697L203.503 294.425L203.23 294.266L202.929 293.805V293.384L202.736 293.68L202.452 294.34V294.852L202.736 295.039V295.386L202.452 295.494L202.815 295.807V296.052L202.378 296.16L202.599 295.892L202.15 295.574L202.247 295.267L202.452 295.21L202.15 295.051H201.803L201.61 295.528L202.048 296.535H202.457L202.685 298.264L203.208 298.497L203.134 299.151L202.895 299.236L203.083 299.271L203.145 299.373L203.094 299.504H203.088Z" fill="#FFDE37"/>
<path d="M202.127 296.848C202.259 296.848 202.366 296.713 202.366 296.547C202.366 296.38 202.259 296.245 202.127 296.245C201.996 296.245 201.889 296.38 201.889 296.547C201.889 296.713 201.996 296.848 202.127 296.848Z" fill="#EDEDED"/>
<path d="M206.818 296.842C206.949 296.842 207.056 296.707 207.056 296.541C207.056 296.374 206.949 296.239 206.818 296.239C206.686 296.239 206.579 296.374 206.579 296.541C206.579 296.707 206.686 296.842 206.818 296.842Z" fill="#EDEDED"/>
<path d="M202.599 300.732L197.551 302.484L196.488 304.008L194.032 311.174L198.131 313.051L199.126 308.393L200.308 315.621H208.916L209.268 309.428L210.86 313.636L213.293 309.428L211.434 304.036L210.064 302.541L205.709 300.732L204.896 301.329H203.236L202.599 300.732Z" fill="#3294EC"/>
<path d="M210.388 327.94L206.232 339.36L203.731 338.501L207.523 326.95L210.394 327.934L210.388 327.94Z" fill="#BC8C5F"/>
<path d="M215.812 324.311L211.656 335.731L209.154 334.873L212.946 323.322L215.817 324.306L215.812 324.311Z" fill="#BC8C5F"/>
<path d="M206.971 337.756L207.199 336.198H204.282L204.39 337.756H206.971Z" fill="white"/>
<path d="M207.278 337.034L207.972 340.002L207.813 341.134H203.753L203.509 339.866L204.163 337.028H204.373L204.635 337.46L204.868 337.028H206.573L206.795 337.46L207.017 337.028H207.273L207.278 337.034Z" fill="#3294EC"/>
<path d="M205.692 339.144C204.862 339.144 203.634 339.974 203.634 340.531H207.904C207.904 339.838 206.562 339.144 205.686 339.144H205.692Z" fill="white"/>
<path d="M206.807 339.03C206.266 338.774 205.215 338.729 204.612 339.03H206.807Z" fill="white"/>
<path d="M206.807 339.03C206.266 338.774 205.215 338.729 204.612 339.03" stroke="#B0266D" stroke-width="2" stroke-miterlimit="10"/>
<path d="M206.84 338.632C206.3 338.376 205.249 338.33 204.646 338.632H206.84Z" fill="white"/>
<path d="M206.84 338.632C206.3 338.376 205.249 338.33 204.646 338.632" stroke="#B0266D" stroke-width="2" stroke-miterlimit="10"/>
<path d="M206.84 338.296C206.3 338.04 205.249 337.995 204.646 338.296H206.84Z" fill="white"/>
<path d="M206.84 338.296C206.3 338.04 205.249 337.995 204.646 338.296" stroke="#B0266D" stroke-width="2" stroke-miterlimit="10"/>
<path d="M211.616 336.124L211.843 334.565H208.927L209.035 336.124H211.616Z" fill="white"/>
<path d="M211.923 335.402L212.617 338.37L212.457 339.502H208.398L208.154 338.234L208.808 335.396H209.018L209.279 335.828L209.513 335.396H211.218L211.44 335.828L211.662 335.396H211.917L211.923 335.402Z" fill="#3294EC"/>
<path d="M210.343 337.511C209.513 337.511 208.285 338.342 208.285 338.899H212.554C212.554 338.205 211.213 337.511 210.337 337.511H210.343Z" fill="white"/>
<path d="M211.451 337.398C210.911 337.142 209.859 337.096 209.257 337.398H211.451Z" fill="white"/>
<path d="M211.451 337.398C210.911 337.142 209.859 337.096 209.257 337.398" stroke="#B0266D" stroke-width="2" stroke-miterlimit="10"/>
<path d="M211.485 337C210.945 336.744 209.893 336.698 209.291 337H211.485Z" fill="white"/>
<path d="M211.485 337C210.945 336.744 209.893 336.698 209.291 337" stroke="#B0266D" stroke-width="2" stroke-miterlimit="10"/>
<path d="M211.485 336.664C210.945 336.408 209.893 336.363 209.291 336.664H211.485Z" fill="white"/>
<path d="M211.485 336.664C210.945 336.408 209.893 336.363 209.291 336.664" stroke="#B0266D" stroke-width="2" stroke-miterlimit="10"/>
<path d="M212.611 310.054L214.72 314.091L218.796 316.389L221.053 316.884L221.616 318.346L220.638 319.25L219.001 318.391L219.479 318.977L219.263 319.42L218.194 318.328L218.12 317.845L213.066 315.599L210.553 312.175L212.611 310.048V310.054Z" fill="#BC8C5F"/>
<path d="M195.038 310.986L193.907 316.008L191.007 319.682L189.108 320.996L189.143 322.565L190.388 323.032L191.576 321.616L191.36 322.338L191.729 322.668L192.303 321.252L192.19 320.774L196.016 316.782L197.625 312.715L195.038 310.986Z" fill="#BC8C5F"/>
<path d="M200.308 315.621L198.227 318.806L197.409 321.729L198.489 325.415L202.946 327.587L206.175 328.025L206.266 328.213L205.863 332.848H209.171L211.718 326.575L210.831 329.982L214.174 330.664L217.853 322.372L219.484 318.806L218.125 317.964L215.323 316.201L210.763 317.157L209.171 317.987L208.921 315.621H200.308Z" fill="#0A3168"/>
<g clip-path="url(#clip2_1_3)">
<path d="M127.472 237.253L127.197 239.715L126.408 240.321L128.022 241.451L130.459 241.572L131.146 240.241L130.665 239.796L130.562 237.133L127.473 237.254L127.472 237.253Z" fill="#C08980"/>
<path d="M128.762 238.445L127.729 238.217L126.877 237.332L126.595 233.307L127.215 231.882H130.49L130.958 233.307L130.705 237.193L129.927 238.217L128.762 238.445Z" fill="#E9ABA0"/>
<path d="M126.685 233.859L126.221 233.955L125.992 234.727L126.087 235.373L126.471 235.695L126.824 235.648L126.686 233.859H126.685Z" fill="#E9ABA0"/>
<path d="M130.869 233.859L131.333 233.955L131.561 234.727L131.467 235.373L131.084 235.695L130.73 235.648L130.869 233.859Z" fill="#E9ABA0"/>
<mask id="mask0_1_3" style="mask-type:luminance" maskUnits="userSpaceOnUse" x="112" y="230" width="34" height="60">
<path d="M146 230H112V290H146V230Z" fill="white"/>
</mask>
<g mask="url(#mask0_1_3)">
<path d="M128.451 236.164H129.103C129.137 236.164 129.164 236.192 129.164 236.226V236.399C129.164 236.433 129.137 236.461 129.103 236.461H128.451C128.417 236.461 128.39 236.433 128.39 236.399V236.226C128.39 236.192 128.417 236.164 128.451 236.164Z" fill="#C08980"/>
<path d="M127.969 237.069L128.335 236.895H129.283L129.585 237.069H127.969Z" fill="#ED8086"/>
<path d="M127.969 237.069H129.585L129.31 237.298H128.373L127.969 237.069Z" fill="#BE4F53"/>
<path d="M128.035 233.917H127.394L127.283 234.324V234.724L127.481 234.923H128.131V234.419L128.036 233.916L128.035 233.917Z" fill="#1C2B4D"/>
<path d="M129.519 233.915H130.16L130.271 234.323V234.723L130.073 234.922H129.423V234.418L129.518 233.915H129.519Z" fill="#1C2B4D"/>
<path d="M127.145 231.998C127.069 231.846 127.026 231.643 126.976 231.262C126.922 230.856 126.955 230.974 127.227 230.689C127.753 230.138 127.999 230 127.999 230L128.779 230.23L129.46 230.184L130.12 230.735L130.575 230.414L130.843 231.011L131.185 231.368L131.526 233.115L131.85 234.497L131.526 236.056L130.891 237.846L130.589 237.872L130.557 237.387L130.701 237.204L130.808 235.648L131.086 235.691L131.467 235.372L131.55 234.75L131.341 234.078L130.736 233.945L130.666 232.709L128.792 232.23L126.954 232.772L126.783 233.946L126.254 234.078L125.994 234.75L126.101 235.377L126.491 235.691L126.783 235.649L126.886 237.331L127.407 237.872V237.963L126.612 237.906L126.041 236.286L125.704 234.935V233.023L126.382 231.873L126.865 231.552C126.865 231.552 127.055 231.87 127.146 232.017" fill="#E85944"/>
<path d="M120.854 248.398L119.56 250.9L115.09 253.445L112.616 253.996L112 255.616L113.072 256.766L114.865 255.814L114.344 256.464L114.582 256.957L115.754 255.75L115.836 255.213L121.892 252.347L124.055 249.008L120.855 248.398H120.854Z" fill="#EAABA1"/>
<path d="M137.146 248.294L138.44 250.796L142.91 253.342L145.384 253.892L146 255.512L144.928 256.662L143.135 255.71L143.656 256.36L143.418 256.853L142.246 255.646L142.164 255.109L136.108 252.243L133.945 248.904L137.146 248.294Z" fill="#EAABA1"/>
<path d="M122.753 278.149L123.15 285.304L125.93 285.246L126.503 278.15L122.753 278.149H122.753Z" fill="#EAABA1"/>
<path d="M134.46 278.637L134.063 285.793L131.282 285.735L130.71 278.638L134.46 278.637Z" fill="#EAABA1"/>
<path d="M126.853 239.988L123.085 241.461L121.916 243.137L120.515 248.58L122.039 249.176L123.831 249.387L123.513 256.151H134.352L134.283 249.383L136.064 249.179L137.531 248.568L136.256 243.138L134.874 241.462L130.883 239.989L130.62 240.891L128.979 241.405L127.3 240.929L126.853 239.989V239.988Z" fill="#F8B137"/>
<path d="M132.335 240.561L130.536 243.443L126.937 245.98L123.832 246.843V247.918L127.216 247.267L129.36 247.777L132.218 246.639L132.64 244.802L132.218 243.443L133.491 241.007L132.335 240.561Z" fill="#E85944"/>
<path d="M130.828 243.483L131.945 243.564L131.785 244.588L129.175 246.142L127.614 246.279L127.215 246.003L127.34 245.98L127.876 246.061L128.925 245.751L131.079 244.404L131.022 243.92L130.623 243.828L130.828 243.483Z" fill="#B0266D"/>
<path d="M123.587 256.15L122.751 262.663L122.597 270.994L122.445 278.702H126.902L127.358 271.347L129.024 262.895L130.397 271.459L130.271 278.702H134.755L134.944 271.347L135.02 263.087L134.283 256.151H123.588L123.587 256.15Z" fill="#00306B"/>
<path d="M122.455 278.149L121.861 278.702V279.689L122.776 280.151H126.535L127.246 279.715V278.702L126.935 278.149L126.901 278.702H122.444L122.455 278.149Z" fill="#3294EC"/>
<path d="M134.768 278.149L135.337 278.702V279.689L134.422 280.151H130.663L129.952 279.715V278.702L130.271 278.149L130.296 278.702H134.754L134.768 278.149Z" fill="#3294EC"/>
<path d="M123.24 286.178L122.993 284.477H126.142L126.025 286.178H123.24Z" fill="white"/>
<path d="M122.888 285.486L122.141 288.723L122.311 289.959H126.695L126.959 288.579L126.25 285.486H126.025L125.744 285.955L125.49 285.486H123.646L123.405 285.955L123.167 285.486H122.888Z" fill="#00306B"/>
<path d="M124.6 287.785C125.494 287.785 126.822 288.692 126.822 289.298H122.207C122.207 288.542 123.656 287.785 124.6 287.785Z" fill="#6DC4E8"/>
<path d="M123.399 287.66C123.981 287.378 125.119 287.331 125.77 287.66" stroke="#3294EC" stroke-miterlimit="10"/>
<path d="M123.363 287.228C123.944 286.946 125.083 286.9 125.734 287.228" stroke="#3294EC" stroke-miterlimit="10"/>
<path d="M123.363 286.861C123.944 286.579 125.083 286.532 125.734 286.861" stroke="#3294EC" stroke-miterlimit="10"/>
<path d="M134.081 286.22L134.328 284.519H131.179L131.296 286.22H134.081Z" fill="white"/>
<path d="M134.433 285.527L135.18 288.765L135.01 290H130.626L130.363 288.62L131.071 285.527H131.296L131.577 285.997L131.831 285.527H133.675L133.916 285.997L134.154 285.527H134.433Z" fill="#00306B"/>
<path d="M132.722 287.826C131.828 287.826 130.5 288.734 130.5 289.339H135.115C135.115 288.583 133.666 287.826 132.722 287.826Z" fill="#6DC4E8"/>
<path d="M133.922 287.701C133.34 287.419 132.202 287.373 131.551 287.701" stroke="#3294EC" stroke-miterlimit="10"/>
<path d="M133.959 287.27C133.378 286.988 132.239 286.941 131.588 287.27" stroke="#3294EC" stroke-miterlimit="10"/>
<path d="M133.959 286.902C133.378 286.62 132.239 286.574 131.588 286.902" stroke="#3294EC" stroke-miterlimit="10"/>
</g>
</g>
</g>
</g>
<defs>
<linearGradient id="paint0_linear_1_3" x1="159.204" y1="279.223" x2="160.649" y2="-77.6843" gradientUnits="userSpaceOnUse">
<stop stop-color="#76BDFF"/>
<stop offset="0.07" stop-color="#70BFF8"/>
<stop offset="0.35" stop-color="#61C7E7"/>
<stop offset="0.65" stop-color="#57CCDD"/>
<stop offset="1" stop-color="#55CEDA"/>
</linearGradient>
<linearGradient id="paint1_linear_1_3" x1="158.71" y1="698.94" x2="159.842" y2="420.283" gradientUnits="userSpaceOnUse">
<stop stop-color="#002B44"/>
<stop offset="1" stop-color="#006584"/>
</linearGradient>
<linearGradient id="paint2_linear_1_3" x1="159.147" y1="698.94" x2="160.28" y2="420.283" gradientUnits="userSpaceOnUse">
<stop stop-color="#002B44"/>
<stop offset="1" stop-color="#006584"/>
</linearGradient>
<clipPath id="clip0_1_3">
<rect width="320" height="568" fill="white"/>
</clipPath>
<clipPath id="clip1_1_3">
<rect width="385" height="801" fill="white" transform="translate(-33 -93)"/>
</clipPath>
<clipPath id="clip2_1_3">
<rect width="34" height="60" fill="white" transform="translate(112 230)"/>
</clipPath>
</defs>
</svg>
